<?xml version="1.0" encoding="utf-8"?>
<!-- Generator: Adobe Illustrator 21.0.0, SVG Export Plug-In . SVG Version: 6.00 Build 0)  -->
<svg version="1.1" id="圖層_1" xmlns="http://www.w3.org/2000/svg" xmlns:xlink="http://www.w3.org/1999/xlink" x="0px" y="0px"
	 viewBox="0 0 100 100" style="enable-background:new 0 0 100 100;" xml:space="preserve">
<style type="text/css">
	.st0{fill:#662D91;}
	.st1{fill:#A0C8D7;}
	.st2{fill:#ABBD81;}
	.st3{fill:#F47E60;}
	.st4{fill:#FFDC6C;}
	.st5{fill:#E15B64;}
	.st6{fill:#F2F2F2;}
	.st7{fill:#FCEE21;}
	.st8{fill:#EEF4DC;}
	.st9{fill:#F5E6C8;}
	.st10{fill:#C33737;}
	.st11{fill:#333333;}
	.st12{fill:#666666;}
	.st13{fill:#CCCCCC;}
	.st14{fill:#FFC28A;}
	.st15{fill:#4D4D4D;}
	.st16{fill:#999999;}
	.st17{fill:#29ABE2;}
	.st18{fill:#166496;}
	.st19{fill:#0071BC;}
	.st20{fill:#F7931E;}
	.st21{fill:#3E4D8A;}
	.st22{fill:#ED1E79;}
	.st23{fill:#9E005D;}
	.st24{fill:#D4145A;}
	.st25{fill:none;}
	.st26{fill:#ED1C24;}
	.st27{fill:#F15A24;}
	.st28{fill:#FBB03B;}
	.st29{fill:#C7B299;}
	.st30{fill:none;stroke:#FFFFFF;stroke-width:4;stroke-linecap:round;stroke-miterlimit:10;}
	.st31{fill:#C69C6D;}
	.st32{fill:#808080;}
	.st33{fill:#39B54A;}
	.st34{fill:#FFFFFF;}
	.st35{fill:#F6FF3F;}
	.st36{fill:#FF0000;}
	.st37{fill:#603813;}
	.st38{fill:#42210B;}
	.st39{fill:#1A1A1A;}
	.st40{fill:#FFD6B0;}
	.st41{fill:#C28851;}
	.st42{fill:#FFC28A;stroke:#FFFFFF;stroke-width:2;stroke-miterlimit:10;}
	.st43{fill:#009245;}
	.st44{fill:none;stroke:#333333;stroke-linecap:round;stroke-miterlimit:10;}
	.st45{fill:#E0E0E0;}
	.st46{fill:#C59B6D;}
	.st47{fill:#3399CC;}
	.st48{fill:#9F69B8;}
	.st49{fill:#EFBF4E;}
	.st50{fill:#353035;}
	.st51{fill:#77A4BD;}
	.st52{fill:#131F25;}
	.st53{fill:#494B32;}
	.st54{fill:none;stroke:#754C24;stroke-miterlimit:10;}
	.st55{fill:#754C24;}
	.st56{fill:#B2A44F;}
	.st57{fill:#48462D;}
	.st58{opacity:0.6;fill:#F73D7E;}
	.st59{opacity:0.8;fill:#F73D7E;}
	.st60{fill:#F73D7E;}
	.st61{opacity:0.59;fill:#3399CC;}
	.st62{fill:#DBDBDB;}
	.st63{fill:#3FAB4B;}
	.st64{fill:#E3A735;}
	.st65{fill:#E48E11;}
	.st66{fill:#A67C52;}
	.st67{fill:#8C6239;}
	.st68{fill:#666666;stroke:#F2F2F2;stroke-width:1.5;stroke-miterlimit:10;}
	.st69{fill:none;stroke:#333333;stroke-width:1.5;stroke-miterlimit:10;}
	.st70{fill:#62A562;}
	.st71{opacity:0.76;fill:#2E6045;}
	.st72{fill:#2E6045;}
	.st73{opacity:0.8;fill:#2E6045;}
	.st74{fill:#F8B26A;stroke:#231815;stroke-miterlimit:10;}
	.st75{fill:#F1F5DB;}
	.st76{fill:#FEAE01;}
	.st77{fill:#FF9400;}
	.st78{fill:none;stroke:#B3B3B3;stroke-width:3;stroke-miterlimit:10;}
	.st79{fill:#B3B3B3;}
	.st80{fill:none;stroke:#000000;stroke-width:1.5;stroke-miterlimit:10;}
	.st81{fill:none;stroke:#754C24;stroke-width:3;stroke-miterlimit:10;}
	.st82{fill:#C5C2BA;}
	.st83{fill:#E62B0F;}
	.st84{fill:#F2E336;}
	.st85{fill:#96AB5F;}
	.st86{fill:#C0996D;}
	.st87{fill:#573E31;}
	.st88{fill:none;stroke:#754C24;stroke-width:2;stroke-linecap:round;stroke-miterlimit:10;}
	.st89{fill:#534741;}
	.st90{fill:#F8B26A;}
	.st91{fill:#F8B26A;stroke:#F2F2F2;stroke-width:0.4104;stroke-miterlimit:10;}
	.st92{fill:none;stroke:#FFFFFF;stroke-width:1.8418;stroke-miterlimit:10;}
	.st93{fill:#F73D7E;stroke:#FFFFFF;stroke-width:1.5;stroke-miterlimit:10;}
	.st94{fill:#F8B26A;stroke:#FFFFFF;stroke-width:2.2377;stroke-miterlimit:10;}
	.st95{fill:#C33737;stroke:#FFFFFF;stroke-width:1.1035;stroke-miterlimit:10;}
	.st96{fill:none;stroke:#333333;stroke-width:3.876;stroke-miterlimit:10;}
	.st97{fill:#31F294;}
	.st98{fill:#66503A;}
	.st99{fill:#E15C65;}
</style>
<path class="st11" d="M60.27,46.299c-3.081-1.522-6.567-2.397-10.27-2.397s-7.189,0.875-10.27,2.397
	C32.473,49.884,27.5,57.13,27.5,65.505v14.467c0,2.984,2.52,5.403,5.628,5.403h33.745c3.108,0,5.628-2.419,5.628-5.403V65.505
	C72.5,57.13,67.527,49.884,60.27,46.299z"/>
<path class="st45" d="M45.75,47.885v2.411c0,1.148,0.931,2.079,2.079,2.079h4.342c1.148,0,2.079-0.931,2.079-2.079v-2.411
	C51.552,48.237,48.448,48.237,45.75,47.885z"/>
<g>
	<path class="st11" d="M39.678,44.601c-0.27-0.147-0.593,0.056-0.593,0.364v3.937c0,0.92,1.887,1.568,4.55,1.947
		c1.113,0.158,2.115-0.703,2.115-1.826l0-1.6c0-0.948-0.722-1.733-1.665-1.834C42.106,45.378,40.498,45.049,39.678,44.601z"/>
	<path class="st11" d="M54.25,47.423l0,1.6c0,1.124,1.002,1.985,2.115,1.826c2.663-0.379,4.55-1.027,4.55-1.947v-3.937
		c0-0.307-0.323-0.511-0.593-0.364c-0.821,0.447-2.429,0.776-4.408,0.987C54.972,45.69,54.25,46.475,54.25,47.423z"/>
</g>
<circle class="st29" cx="50" cy="34.388" r="14.513"/>
<path class="st45" d="M50,19.875c-0.426,0-0.846,0.028-1.263,0.064c-1.066,0.092-2.102,0.292-3.089,0.602
	c-5.29,1.661-9.26,6.272-10.016,11.903c0.637,0.112,1.288,0.181,1.957,0.181c4.154,0,7.773-2.258,9.721-5.607
	c2.876,6.114,9.074,10.357,16.279,10.357c0.21,0,0.414-0.024,0.622-0.031c0.197-0.954,0.303-1.942,0.303-2.955
	C64.514,26.373,58.016,19.875,50,19.875z"/>
<polygon class="st4" points="55.352,60.879 51.32,60.879 51.32,56.847 48.68,56.847 48.68,60.879 44.648,60.879 44.648,63.519 
	48.68,63.519 48.68,74.403 51.32,74.403 51.32,63.519 55.352,63.519 "/>
<path class="st11" d="M55.767,16.072l0.252-0.797c0.083-0.263-0.062-0.544-0.326-0.627c-0.262-0.082-0.543,0.062-0.627,0.326
	l-0.25,0.789c-0.659-0.172-1.347-0.273-2.06-0.273c-3.474,0-6.433,2.174-7.61,5.233c1.52-0.54,13.028,1.042,15.687,4.028
	c0.049-0.361,0.083-0.727,0.083-1.102C60.915,20.209,58.781,17.271,55.767,16.072z"/>
</svg>
